<mxfile host="drawio-plugin" modified="2021-11-15T15:35:00.046Z" agent="5.0 (Macintosh; Intel Mac OS X 10_15_3) AppleWebKit/537.36 (KHTML, like Gecko) Chrome/89.0.4389.114 Safari/537.36" etag="A8VYWqQeVmNhMkeBf7xX" version="14.7.4" type="embed"><diagram id="C5RBs43oDa-KdzZeNtuy" name="Page-1"><mxGraphModel dx="1869" dy="428" grid="1" gridSize="10" guides="1" tooltips="1" connect="1" arrows="1" fold="1" page="1" pageScale="1" pageWidth="827" pageHeight="1169" math="0" shadow="0"><root><mxCell id="WIyWlLk6GJQsqaUBKTNV-0"/><mxCell id="WIyWlLk6GJQsqaUBKTNV-1" parent="WIyWlLk6GJQsqaUBKTNV-0"/><mxCell id="zkfFHV4jXpPFQw0GAbJ--0" value="employees_roles" style="swimlane;fontStyle=2;align=center;verticalAlign=top;childLayout=stackLayout;horizontal=1;startSize=26;horizontalStack=0;resizeParent=1;resizeLast=0;collapsible=1;marginBottom=0;rounded=0;shadow=0;strokeWidth=1;" parent="WIyWlLk6GJQsqaUBKTNV-1" vertex="1"><mxGeometry x="200" y="10" width="160" height="90" as="geometry"><mxRectangle x="230" y="140" width="160" height="26" as="alternateBounds"/></mxGeometry></mxCell><mxCell id="zkfFHV4jXpPFQw0GAbJ--1" value="id    int PK" style="text;align=left;verticalAlign=top;spacingLeft=4;spacingRight=4;overflow=hidden;rotatable=0;points=[[0,0.5],[1,0.5]];portConstraint=eastwest;" parent="zkfFHV4jXpPFQw0GAbJ--0" vertex="1"><mxGeometry y="26" width="160" height="26" as="geometry"/></mxCell><mxCell id="zkfFHV4jXpPFQw0GAbJ--2" value="role_tite    varchar(50)" style="text;align=left;verticalAlign=top;spacingLeft=4;spacingRight=4;overflow=hidden;rotatable=0;points=[[0,0.5],[1,0.5]];portConstraint=eastwest;rounded=0;shadow=0;html=0;" parent="zkfFHV4jXpPFQw0GAbJ--0" vertex="1"><mxGeometry y="52" width="160" height="26" as="geometry"/></mxCell><mxCell id="brgtL39JmUhsGDXCdVfr-5" style="edgeStyle=orthogonalEdgeStyle;rounded=0;orthogonalLoop=1;jettySize=auto;html=1;entryX=-0.025;entryY=0.098;entryDx=0;entryDy=0;entryPerimeter=0;" parent="WIyWlLk6GJQsqaUBKTNV-1" source="zkfFHV4jXpPFQw0GAbJ--6" target="brgtL39JmUhsGDXCdVfr-4" edge="1"><mxGeometry relative="1" as="geometry"/></mxCell><mxCell id="zkfFHV4jXpPFQw0GAbJ--6" value="grounds" style="swimlane;fontStyle=0;align=center;verticalAlign=top;childLayout=stackLayout;horizontal=1;startSize=26;horizontalStack=0;resizeParent=1;resizeLast=0;collapsible=1;marginBottom=0;rounded=0;shadow=0;strokeWidth=1;" parent="WIyWlLk6GJQsqaUBKTNV-1" vertex="1"><mxGeometry x="30" y="150" width="160" height="140" as="geometry"><mxRectangle x="130" y="380" width="160" height="26" as="alternateBounds"/></mxGeometry></mxCell><mxCell id="zkfFHV4jXpPFQw0GAbJ--7" value="id    uuid PK &#10;&#10;address_id   int FK&#10;&#10;capacity    int&#10;&#10;max_capacity int" style="text;align=left;verticalAlign=top;spacingLeft=4;spacingRight=4;overflow=hidden;rotatable=0;points=[[0,0.5],[1,0.5]];portConstraint=eastwest;" parent="zkfFHV4jXpPFQw0GAbJ--6" vertex="1"><mxGeometry y="26" width="160" height="114" as="geometry"/></mxCell><mxCell id="zkfFHV4jXpPFQw0GAbJ--13" value="movies" style="swimlane;fontStyle=0;align=center;verticalAlign=top;childLayout=stackLayout;horizontal=1;startSize=26;horizontalStack=0;resizeParent=1;resizeLast=0;collapsible=1;marginBottom=0;rounded=0;shadow=0;strokeWidth=1;" parent="WIyWlLk6GJQsqaUBKTNV-1" vertex="1"><mxGeometry x="480" y="230" width="160" height="198" as="geometry"><mxRectangle x="340" y="380" width="170" height="26" as="alternateBounds"/></mxGeometry></mxCell><mxCell id="zkfFHV4jXpPFQw0GAbJ--14" value="id    int PK&#10;&#10;title    varchar(255)&#10;&#10;genre    varchar(255)&#10;&#10;duration    time&#10;&#10;year   date&#10;&#10;author    varchar(255)&#10;&#10;" style="text;align=left;verticalAlign=top;spacingLeft=4;spacingRight=4;overflow=hidden;rotatable=0;points=[[0,0.5],[1,0.5]];portConstraint=eastwest;fontStyle=0" parent="zkfFHV4jXpPFQw0GAbJ--13" vertex="1"><mxGeometry y="26" width="160" height="164" as="geometry"/></mxCell><mxCell id="zkfFHV4jXpPFQw0GAbJ--17" value="employees" style="swimlane;fontStyle=0;align=center;verticalAlign=top;childLayout=stackLayout;horizontal=1;startSize=26;horizontalStack=0;resizeParent=1;resizeLast=0;collapsible=1;marginBottom=0;rounded=0;shadow=0;strokeWidth=1;" parent="WIyWlLk6GJQsqaUBKTNV-1" vertex="1"><mxGeometry x="440" y="10" width="186" height="170" as="geometry"><mxRectangle x="550" y="140" width="160" height="26" as="alternateBounds"/></mxGeometry></mxCell><mxCell id="zkfFHV4jXpPFQw0GAbJ--18" value="id    int PK" style="text;align=left;verticalAlign=top;spacingLeft=4;spacingRight=4;overflow=hidden;rotatable=0;points=[[0,0.5],[1,0.5]];portConstraint=eastwest;" parent="zkfFHV4jXpPFQw0GAbJ--17" vertex="1"><mxGeometry y="26" width="186" height="26" as="geometry"/></mxCell><mxCell id="zkfFHV4jXpPFQw0GAbJ--19" value="f_name    varchar(255)" style="text;align=left;verticalAlign=top;spacingLeft=4;spacingRight=4;overflow=hidden;rotatable=0;points=[[0,0.5],[1,0.5]];portConstraint=eastwest;rounded=0;shadow=0;html=0;" parent="zkfFHV4jXpPFQw0GAbJ--17" vertex="1"><mxGeometry y="52" width="186" height="26" as="geometry"/></mxCell><mxCell id="zkfFHV4jXpPFQw0GAbJ--20" value="l_name    var(255)" style="text;align=left;verticalAlign=top;spacingLeft=4;spacingRight=4;overflow=hidden;rotatable=0;points=[[0,0.5],[1,0.5]];portConstraint=eastwest;rounded=0;shadow=0;html=0;" parent="zkfFHV4jXpPFQw0GAbJ--17" vertex="1"><mxGeometry y="78" width="186" height="26" as="geometry"/></mxCell><mxCell id="zkfFHV4jXpPFQw0GAbJ--21" value="employee_role_id    int FK&#10;&#10;phone    int" style="text;align=left;verticalAlign=top;spacingLeft=4;spacingRight=4;overflow=hidden;rotatable=0;points=[[0,0.5],[1,0.5]];portConstraint=eastwest;rounded=0;shadow=0;html=0;" parent="zkfFHV4jXpPFQw0GAbJ--17" vertex="1"><mxGeometry y="104" width="186" height="66" as="geometry"/></mxCell><mxCell id="brgtL39JmUhsGDXCdVfr-2" style="edgeStyle=orthogonalEdgeStyle;rounded=0;orthogonalLoop=1;jettySize=auto;html=1;entryX=-0.005;entryY=0.212;entryDx=0;entryDy=0;entryPerimeter=0;" parent="WIyWlLk6GJQsqaUBKTNV-1" source="zkfFHV4jXpPFQw0GAbJ--1" target="zkfFHV4jXpPFQw0GAbJ--21" edge="1"><mxGeometry relative="1" as="geometry"/></mxCell><mxCell id="brgtL39JmUhsGDXCdVfr-3" value="grounds_sessions" style="swimlane;fontStyle=0;align=center;verticalAlign=top;childLayout=stackLayout;horizontal=1;startSize=26;horizontalStack=0;resizeParent=1;resizeLast=0;collapsible=1;marginBottom=0;rounded=0;shadow=0;strokeWidth=1;" parent="WIyWlLk6GJQsqaUBKTNV-1" vertex="1"><mxGeometry x="240" y="156" width="160" height="198" as="geometry"><mxRectangle x="340" y="380" width="170" height="26" as="alternateBounds"/></mxGeometry></mxCell><mxCell id="brgtL39JmUhsGDXCdVfr-4" value="id    uuid PK&#10;&#10;date   date&#10;&#10;time   time&#10;&#10;ground_id    uuid FK&#10;&#10;employee_id    uuid FK&#10;&#10;movie_id    uuid FK&#10;" style="text;align=left;verticalAlign=top;spacingLeft=4;spacingRight=4;overflow=hidden;rotatable=0;points=[[0,0.5],[1,0.5]];portConstraint=eastwest;fontStyle=0" parent="brgtL39JmUhsGDXCdVfr-3" vertex="1"><mxGeometry y="26" width="160" height="164" as="geometry"/></mxCell><mxCell id="brgtL39JmUhsGDXCdVfr-6" style="edgeStyle=orthogonalEdgeStyle;rounded=0;orthogonalLoop=1;jettySize=auto;html=1;entryX=1.025;entryY=0.744;entryDx=0;entryDy=0;entryPerimeter=0;" parent="WIyWlLk6GJQsqaUBKTNV-1" source="zkfFHV4jXpPFQw0GAbJ--18" target="brgtL39JmUhsGDXCdVfr-4" edge="1"><mxGeometry relative="1" as="geometry"/></mxCell><mxCell id="brgtL39JmUhsGDXCdVfr-7" style="edgeStyle=orthogonalEdgeStyle;rounded=0;orthogonalLoop=1;jettySize=auto;html=1;entryX=0.938;entryY=0.988;entryDx=0;entryDy=0;entryPerimeter=0;" parent="WIyWlLk6GJQsqaUBKTNV-1" source="zkfFHV4jXpPFQw0GAbJ--14" target="brgtL39JmUhsGDXCdVfr-4" edge="1"><mxGeometry relative="1" as="geometry"/></mxCell><mxCell id="brgtL39JmUhsGDXCdVfr-8" value="clients" style="swimlane;fontStyle=0;align=center;verticalAlign=top;childLayout=stackLayout;horizontal=1;startSize=26;horizontalStack=0;resizeParent=1;resizeLast=0;collapsible=1;marginBottom=0;rounded=0;shadow=0;strokeWidth=1;" parent="WIyWlLk6GJQsqaUBKTNV-1" vertex="1"><mxGeometry x="30" y="318" width="160" height="172" as="geometry"><mxRectangle x="130" y="380" width="160" height="26" as="alternateBounds"/></mxGeometry></mxCell><mxCell id="brgtL39JmUhsGDXCdVfr-9" value="id    int PK &#10;&#10;f_name    varchar(255)&#10;&#10;l_name    varchar(255)&#10;&#10;email    varchar(255)&#10;&#10;password    varchar(255)&#10;&#10;" style="text;align=left;verticalAlign=top;spacingLeft=4;spacingRight=4;overflow=hidden;rotatable=0;points=[[0,0.5],[1,0.5]];portConstraint=eastwest;" parent="brgtL39JmUhsGDXCdVfr-8" vertex="1"><mxGeometry y="26" width="160" height="144" as="geometry"/></mxCell><mxCell id="brgtL39JmUhsGDXCdVfr-10" value="grounds_sessions_reservation" style="swimlane;fontStyle=0;align=center;verticalAlign=top;childLayout=stackLayout;horizontal=1;startSize=26;horizontalStack=0;resizeParent=1;resizeLast=0;collapsible=1;marginBottom=0;rounded=0;shadow=0;strokeWidth=1;" parent="WIyWlLk6GJQsqaUBKTNV-1" vertex="1"><mxGeometry x="240" y="400" width="190" height="120" as="geometry"><mxRectangle x="340" y="380" width="170" height="26" as="alternateBounds"/></mxGeometry></mxCell><mxCell id="brgtL39JmUhsGDXCdVfr-11" value="id    int PK&#10;&#10;ground_session_id    int FK&#10;&#10;client_id    int FK&#10;&#10;" style="text;align=left;verticalAlign=top;spacingLeft=4;spacingRight=4;overflow=hidden;rotatable=0;points=[[0,0.5],[1,0.5]];portConstraint=eastwest;fontStyle=0" parent="brgtL39JmUhsGDXCdVfr-10" vertex="1"><mxGeometry y="26" width="190" height="94" as="geometry"/></mxCell><mxCell id="brgtL39JmUhsGDXCdVfr-12" style="edgeStyle=orthogonalEdgeStyle;rounded=0;orthogonalLoop=1;jettySize=auto;html=1;entryX=-0.005;entryY=0.457;entryDx=0;entryDy=0;entryPerimeter=0;" parent="WIyWlLk6GJQsqaUBKTNV-1" source="brgtL39JmUhsGDXCdVfr-9" target="brgtL39JmUhsGDXCdVfr-11" edge="1"><mxGeometry relative="1" as="geometry"/></mxCell><mxCell id="brgtL39JmUhsGDXCdVfr-13" style="edgeStyle=orthogonalEdgeStyle;rounded=0;orthogonalLoop=1;jettySize=auto;html=1;" parent="WIyWlLk6GJQsqaUBKTNV-1" source="brgtL39JmUhsGDXCdVfr-4" edge="1"><mxGeometry relative="1" as="geometry"><mxPoint x="241" y="440" as="targetPoint"/><Array as="points"><mxPoint x="420" y="264"/><mxPoint x="420" y="386"/><mxPoint x="220" y="386"/><mxPoint x="220" y="440"/><mxPoint x="241" y="440"/></Array></mxGeometry></mxCell><mxCell id="brgtL39JmUhsGDXCdVfr-70" value="addresses" style="swimlane;fontStyle=0;align=center;verticalAlign=top;childLayout=stackLayout;horizontal=1;startSize=26;horizontalStack=0;resizeParent=1;resizeLast=0;collapsible=1;marginBottom=0;rounded=0;shadow=0;strokeWidth=1;" parent="WIyWlLk6GJQsqaUBKTNV-1" vertex="1"><mxGeometry x="-240" y="148" width="190" height="190" as="geometry"><mxRectangle x="550" y="140" width="160" height="26" as="alternateBounds"/></mxGeometry></mxCell><mxCell id="brgtL39JmUhsGDXCdVfr-71" value="id    int PK" style="text;align=left;verticalAlign=top;spacingLeft=4;spacingRight=4;overflow=hidden;rotatable=0;points=[[0,0.5],[1,0.5]];portConstraint=eastwest;" parent="brgtL39JmUhsGDXCdVfr-70" vertex="1"><mxGeometry y="26" width="190" height="26" as="geometry"/></mxCell><mxCell id="brgtL39JmUhsGDXCdVfr-72" value="street_number    int" style="text;align=left;verticalAlign=top;spacingLeft=4;spacingRight=4;overflow=hidden;rotatable=0;points=[[0,0.5],[1,0.5]];portConstraint=eastwest;rounded=0;shadow=0;html=0;" parent="brgtL39JmUhsGDXCdVfr-70" vertex="1"><mxGeometry y="52" width="190" height="26" as="geometry"/></mxCell><mxCell id="brgtL39JmUhsGDXCdVfr-73" value="street_name    varchar(255)" style="text;align=left;verticalAlign=top;spacingLeft=4;spacingRight=4;overflow=hidden;rotatable=0;points=[[0,0.5],[1,0.5]];portConstraint=eastwest;rounded=0;shadow=0;html=0;" parent="brgtL39JmUhsGDXCdVfr-70" vertex="1"><mxGeometry y="78" width="190" height="26" as="geometry"/></mxCell><mxCell id="brgtL39JmUhsGDXCdVfr-74" value="city_name    varchar(255)&#10;&#10;city_zip    varchar(255)&#10;&#10;region    varchar(255)" style="text;align=left;verticalAlign=top;spacingLeft=4;spacingRight=4;overflow=hidden;rotatable=0;points=[[0,0.5],[1,0.5]];portConstraint=eastwest;rounded=0;shadow=0;html=0;" parent="brgtL39JmUhsGDXCdVfr-70" vertex="1"><mxGeometry y="104" width="190" height="86" as="geometry"/></mxCell><mxCell id="mI45CnBY2VwvGuMsqwKI-0" style="edgeStyle=orthogonalEdgeStyle;rounded=0;orthogonalLoop=1;jettySize=auto;html=1;entryX=0;entryY=0.325;entryDx=0;entryDy=0;entryPerimeter=0;exitX=1;exitY=0.5;exitDx=0;exitDy=0;" parent="WIyWlLk6GJQsqaUBKTNV-1" source="brgtL39JmUhsGDXCdVfr-71" target="zkfFHV4jXpPFQw0GAbJ--7" edge="1"><mxGeometry relative="1" as="geometry"/></mxCell><mxCell id="0" value="employees" style="swimlane;fontStyle=0;align=center;verticalAlign=top;childLayout=stackLayout;horizontal=1;startSize=26;horizontalStack=0;resizeParent=1;resizeLast=0;collapsible=1;marginBottom=0;rounded=0;shadow=0;strokeWidth=1;" vertex="1" parent="WIyWlLk6GJQsqaUBKTNV-1"><mxGeometry x="700" y="40" width="186" height="170" as="geometry"><mxRectangle x="550" y="140" width="160" height="26" as="alternateBounds"/></mxGeometry></mxCell><mxCell id="1" value="id    int PK" style="text;align=left;verticalAlign=top;spacingLeft=4;spacingRight=4;overflow=hidden;rotatable=0;points=[[0,0.5],[1,0.5]];portConstraint=eastwest;" vertex="1" parent="0"><mxGeometry y="26" width="186" height="26" as="geometry"/></mxCell><mxCell id="2" value="f_name    varchar(255)" style="text;align=left;verticalAlign=top;spacingLeft=4;spacingRight=4;overflow=hidden;rotatable=0;points=[[0,0.5],[1,0.5]];portConstraint=eastwest;rounded=0;shadow=0;html=0;" vertex="1" parent="0"><mxGeometry y="52" width="186" height="26" as="geometry"/></mxCell><mxCell id="3" value="l_name    var(255)" style="text;align=left;verticalAlign=top;spacingLeft=4;spacingRight=4;overflow=hidden;rotatable=0;points=[[0,0.5],[1,0.5]];portConstraint=eastwest;rounded=0;shadow=0;html=0;" vertex="1" parent="0"><mxGeometry y="78" width="186" height="26" as="geometry"/></mxCell><mxCell id="4" value="employee_role_id    int FK&#10;&#10;phone    int" style="text;align=left;verticalAlign=top;spacingLeft=4;spacingRight=4;overflow=hidden;rotatable=0;points=[[0,0.5],[1,0.5]];portConstraint=eastwest;rounded=0;shadow=0;html=0;" vertex="1" parent="0"><mxGeometry y="104" width="186" height="66" as="geometry"/></mxCell></root></mxGraphModel></diagram></mxfile>